<svg xmlns="http://www.w3.org/2000/svg" viewBox="0 0 128 128" role="img" aria-label="PRDemo">
  <defs>
    <linearGradient id="g" x1="18" y1="12" x2="110" y2="116" gradientUnits="userSpaceOnUse">
      <stop stop-color="#0F766E"/>
      <stop offset="0.58" stop-color="#14B8A6"/>
      <stop offset="1" stop-color="#F59E0B"/>
    </linearGradient>
    <filter id="s" x="-20%" y="-20%" width="140%" height="140%">
      <feDropShadow dx="0" dy="10" stdDeviation="9" flood-color="#0f172a" flood-opacity=".22"/>
    </filter>
  </defs>
  <rect x="12" y="12" width="104" height="104" rx="30" fill="#FFFDF7" filter="url(#s)"/>
  <path d="M36 38h36c13.8 0 23 8.1 23 20.2 0 12.4-9.3 20.7-23.5 20.7H55.8V96H36V38Z" fill="url(#g)"/>
  <path d="M55.8 54.6v8.7h13.8c3.4 0 5.7-1.8 5.7-4.5 0-2.6-2.3-4.2-5.7-4.2H55.8Z" fill="#FFFDF7"/>
  <circle cx="91" cy="34" r="8" fill="#F59E0B"/>
  <path d="M31 92c19-3.5 36-3.5 55 0" fill="none" stroke="#0F766E" stroke-width="6" stroke-linecap="round" opacity=".22"/>
</svg>
